<?xml version="1.0" standalone="no"?>
<!DOCTYPE svg PUBLIC "-//W3C//DTD SVG 20010904//EN"
 "http://www.w3.org/TR/2001/REC-SVG-20010904/DTD/svg10.dtd">
<svg version="1.0" xmlns="http://www.w3.org/2000/svg"
 width="806.000000pt" height="506.000000pt" viewBox="0 0 806.000000 506.000000"
 preserveAspectRatio="xMidYMid meet">

<g transform="translate(0.000000,506.000000) scale(0.100000,-0.100000)"
fill="#000000" stroke="none">
<path d="M4081 4184 c-1 -6 -11 -16 -23 -22 -14 -6 -17 -11 -8 -11 23 -1 43
15 37 30 -3 8 -6 9 -6 3z"/>
<path d="M4512 4134 c-13 -6 -20 -14 -14 -18 10 -6 50 19 42 27 -3 2 -16 -2
-28 -9z"/>
<path d="M3892 4120 c0 -14 2 -19 5 -12 2 6 2 18 0 25 -3 6 -5 1 -5 -13z"/>
<path d="M4301 4114 c0 -11 3 -14 6 -6 3 7 2 16 -1 19 -3 4 -6 -2 -5 -13z"/>
<path d="M4270 4070 c-13 -8 -12 -10 3 -10 9 0 17 5 17 10 0 12 -1 12 -20 0z"/>
<path d="M4711 4020 c0 -13 -16 -39 -33 -58 -18 -19 -24 -29 -13 -22 32 19 57
59 52 83 -4 21 -4 21 -6 -3z"/>
<path d="M3916 3985 c-16 -12 -17 -15 -4 -15 9 0 18 7 22 15 7 18 6 18 -18 0z"/>
<path d="M3550 3975 c-8 -9 -8 -15 -2 -15 12 0 26 19 19 26 -2 2 -10 -2 -17
-11z"/>
<path d="M4140 3967 c0 -13 -3 -27 -7 -33 -5 -5 2 1 15 13 25 26 29 43 7 43
-9 0 -15 -9 -15 -23z"/>
<path d="M4428 3948 c-19 -19 -13 -24 11 -9 7 5 12 13 10 18 -2 5 -12 1 -21
-9z"/>
<path d="M4570 3935 c0 -9 5 -15 11 -13 6 2 11 8 11 13 0 5 -5 11 -11 13 -6 2
-11 -4 -11 -13z"/>
<path d="M4556 3895 c-11 -8 -15 -15 -9 -15 6 0 16 7 23 15 16 19 11 19 -14 0z"/>
<path d="M4301 3891 c-8 -6 -9 -11 -3 -15 6 -3 14 -1 17 5 9 14 2 20 -14 10z"/>
<path d="M4814 3846 c-9 -20 -9 -23 2 -19 8 3 14 14 14 24 0 25 -3 24 -16 -5z"/>
<path d="M3936 3835 c-11 -8 -15 -15 -9 -15 6 0 16 7 23 15 16 19 11 19 -14 0z"/>
<path d="M3762 3811 c-15 -14 -20 -27 -14 -33 5 -5 16 1 26 17 23 36 16 45
-12 16z"/>
<path d="M4336 3795 c-9 -26 -7 -32 5 -12 6 10 9 21 6 23 -2 3 -7 -2 -11 -11z"/>
<path d="M4095 3779 c-11 -17 -2 -18 19 -3 17 12 17 14 4 14 -9 0 -20 -5 -23
-11z"/>
<path d="M4540 3744 c-17 -9 -20 -14 -9 -14 9 0 22 7 29 15 15 18 13 18 -20
-1z"/>
<path d="M3535 3681 c-6 -5 -21 -11 -35 -14 l-25 -4 26 -2 c15 0 32 6 39 14
14 16 10 21 -5 6z"/>
<path d="M3226 3655 c8 -20 -13 -45 -40 -46 -16 -1 -17 -2 -4 -6 27 -7 58 15
58 42 0 14 -4 25 -10 25 -5 0 -7 -7 -4 -15z"/>
<path d="M3890 3631 c0 -11 -10 -27 -22 -35 -12 -9 -18 -16 -13 -16 15 1 38
22 53 48 10 18 10 22 -3 22 -8 0 -15 -9 -15 -19z"/>
<path d="M4793 3643 c9 -2 25 -2 35 0 9 3 1 5 -18 5 -19 0 -27 -2 -17 -5z"/>
<path d="M3990 3625 c-10 -12 -10 -15 4 -15 9 0 16 7 16 15 0 8 -2 15 -4 15
-2 0 -9 -7 -16 -15z"/>
<path d="M4738 3633 c6 -2 18 -2 25 0 6 3 1 5 -13 5 -14 0 -19 -2 -12 -5z"/>
<path d="M4205 3620 c-19 -8 -19 -9 3 -9 12 -1 22 4 22 9 0 6 -1 10 -2 9 -2 0
-12 -4 -23 -9z"/>
<path d="M4080 3578 c0 -6 -8 -20 -17 -31 -17 -19 -17 -20 5 -8 18 10 33 51
17 51 -3 0 -5 -5 -5 -12z"/>
<path d="M3730 3563 c0 -11 -10 -28 -22 -36 l-23 -16 23 6 c21 5 41 47 28 60
-3 4 -6 -3 -6 -14z"/>
<path d="M4411 3554 c0 -11 3 -14 6 -6 3 7 2 16 -1 19 -3 4 -6 -2 -5 -13z"/>
<path d="M4536 3556 c10 -8 21 -11 24 -8 3 4 9 10 14 15 5 4 -6 7 -24 7 -32 0
-33 -1 -14 -14z"/>
<path d="M4996 3544 c-17 -12 -17 -14 -4 -14 9 0 20 5 23 11 11 17 2 18 -19 3z"/>
<path d="M4720 3531 c0 -6 -10 -16 -22 -21 -23 -9 -23 -9 -2 -9 20 -1 41 26
29 37 -3 3 -5 0 -5 -7z"/>
<path d="M4382 3485 c-14 -31 -15 -35 -3 -35 8 0 23 51 17 58 -2 1 -8 -9 -14
-23z"/>
<path d="M4542 3485 c-11 -12 -10 -15 3 -15 8 0 15 7 15 15 0 18 -2 18 -18 0z"/>
<path d="M4210 3470 c-23 -7 -23 -8 -3 -9 12 -1 25 4 28 9 3 6 5 10 3 9 -2 -1
-14 -5 -28 -9z"/>
<path d="M3970 3450 c-9 -6 -10 -10 -3 -10 6 0 15 5 18 10 8 12 4 12 -15 0z"/>
<path d="M3284 3412 c-7 -10 -31 -24 -54 -31 -23 -7 -40 -15 -37 -17 8 -8 86
18 98 32 6 7 9 18 7 24 -2 6 -8 2 -14 -8z"/>
<path d="M3680 3415 c-7 -9 -8 -15 -2 -15 5 0 12 7 16 15 3 8 4 15 2 15 -2 0
-9 -7 -16 -15z"/>
<path d="M4611 3414 c0 -11 3 -14 6 -6 3 7 2 16 -1 19 -3 4 -6 -2 -5 -13z"/>
<path d="M3465 3398 l-20 -21 23 12 c12 6 22 16 22 21 0 13 -2 12 -25 -12z"/>
<path d="M4595 3380 c-3 -5 -16 -10 -28 -10 -12 0 -31 -7 -41 -15 -25 -19 -20
-19 37 1 26 9 47 20 47 25 0 12 -7 11 -15 -1z"/>
<path d="M4932 3354 c-7 -8 -8 -14 -3 -14 10 0 25 19 20 25 -2 1 -10 -3 -17
-11z"/>
<path d="M4234 3342 c10 -16 -5 -40 -40 -63 -16 -10 -23 -19 -16 -19 16 0 72
54 72 69 0 5 -5 13 -12 17 -7 4 -8 3 -4 -4z"/>
<path d="M4830 3341 c0 -4 11 -6 25 -3 14 2 25 6 25 8 0 2 -11 4 -25 4 -14 0
-25 -4 -25 -9z"/>
<path d="M3860 3325 c-10 -12 -10 -15 4 -15 9 0 16 7 16 15 0 8 -2 15 -4 15
-2 0 -9 -7 -16 -15z"/>
<path d="M4755 3269 c-11 -17 -2 -18 25 -4 24 14 24 14 3 15 -12 0 -25 -5 -28
-11z"/>
<path d="M3144 3183 c-23 -24 -35 -43 -26 -41 15 3 79 75 71 81 -2 2 -23 -16
-45 -40z"/>
<path d="M4451 3217 c-9 -11 -5 -14 20 -15 25 -1 28 2 18 14 -14 18 -23 18
-38 1z"/>
<path d="M5021 3193 c0 -12 -9 -27 -18 -32 -17 -10 -17 -10 0 -11 20 0 31 20
24 47 -4 15 -5 14 -6 -4z"/>
<path d="M4301 3174 c0 -11 3 -14 6 -6 3 7 2 16 -1 19 -3 4 -6 -2 -5 -13z"/>
<path d="M3407 3094 c-27 -24 -45 -44 -40 -44 12 1 99 78 93 83 -3 3 -27 -15
-53 -39z"/>
<path d="M4776 3082 l-19 -27 24 22 c12 12 21 24 18 27 -2 2 -13 -8 -23 -22z"/>
<path d="M4020 3090 c-9 -6 -10 -10 -3 -10 6 0 15 5 18 10 8 12 4 12 -15 0z"/>
<path d="M4545 3058 c-7 -17 -18 -23 -42 -23 -37 0 -38 -1 -18 -35 11 -19 14
-21 15 -8 0 10 14 24 30 33 18 9 30 23 30 35 0 26 -3 25 -15 -2z"/>
<path d="M3720 3055 c-8 -9 -8 -15 -2 -15 12 0 26 19 19 26 -2 2 -10 -2 -17
-11z"/>
<path d="M4217 3015 c-17 -21 -21 -32 -12 -29 13 5 52 64 43 64 -2 0 -15 -16
-31 -35z"/>
<path d="M3933 2980 c-11 -16 -10 -18 2 -14 8 4 15 12 15 20 0 19 -3 18 -17
-6z"/>
<path d="M4720 2982 c0 -11 -8 -26 -17 -31 -17 -10 -17 -10 -1 -11 18 0 36 45
24 57 -3 4 -6 -3 -6 -15z"/>
<path d="M4400 2950 c0 -5 5 -10 10 -10 6 0 10 5 10 10 0 6 -4 10 -10 10 -5 0
-10 -4 -10 -10z"/>
<path d="M4928 2937 c-3 -19 -2 -25 4 -19 6 6 8 18 6 28 -3 14 -5 12 -10 -9z"/>
<path d="M3471 2880 c-17 -15 -19 -20 -7 -20 8 0 20 9 26 20 13 25 11 25 -19
0z"/>
<path d="M3294 2859 c-10 -12 -28 -25 -39 -30 -16 -6 -17 -8 -3 -8 18 -1 75
46 66 54 -3 3 -13 -4 -24 -16z"/>
<path d="M4380 2870 c-13 -8 -12 -10 3 -10 9 0 17 5 17 10 0 12 -1 12 -20 0z"/>
<path d="M3702 2835 c0 -16 2 -22 5 -12 2 9 2 23 0 30 -3 6 -5 -1 -5 -18z"/>
<path d="M4632 2812 c-11 -25 -11 -25 4 -10 9 9 15 21 13 27 -2 6 -10 -2 -17
-17z"/>
<path d="M4185 2800 c-3 -5 -1 -10 4 -10 6 0 11 5 11 10 0 6 -2 10 -4 10 -3 0
-8 -4 -11 -10z"/>
<path d="M4160 2770 c-9 -6 -10 -10 -3 -10 6 0 15 5 18 10 8 12 4 12 -15 0z"/>
<path d="M3676 2755 c-9 -26 -7 -32 5 -12 6 10 9 21 6 23 -2 3 -7 -2 -11 -11z"/>
<path d="M4032 2697 c-2 -70 -4 -79 -24 -87 -16 -6 -18 -9 -7 -9 31 -2 40 24
36 101 l-3 73 -2 -78z"/>
<path d="M3450 2610 c-8 -5 -12 -11 -9 -14 2 -3 11 -1 19 4 8 5 12 11 9 14 -2
3 -11 1 -19 -4z"/>
<path d="M4740 2595 c-8 -9 -8 -15 -2 -15 12 0 26 19 19 26 -2 2 -10 -2 -17
-11z"/>
<path d="M4401 2569 c-16 -13 -18 -19 -8 -19 15 0 43 27 36 34 -2 3 -15 -4
-28 -15z"/>
<path d="M3828 2490 c-3 -16 -1 -30 4 -30 4 0 8 14 8 30 0 17 -2 30 -4 30 -2
0 -6 -13 -8 -30z"/>
<path d="M4130 2425 c-11 -13 -10 -14 4 -9 9 3 16 10 16 15 0 13 -6 11 -20 -6z"/>
<path d="M3811 2404 c0 -11 3 -14 6 -6 3 7 2 16 -1 19 -3 4 -6 -2 -5 -13z"/>
<path d="M3780 2360 c-13 -8 -12 -10 3 -10 9 0 17 5 17 10 0 12 -1 12 -20 0z"/>
<path d="M4305 2340 c-3 -5 -1 -10 4 -10 6 0 11 5 11 10 0 6 -2 10 -4 10 -3 0
-8 -4 -11 -10z"/>
<path d="M6510 1924 c0 -8 5 -12 10 -9 6 4 8 11 5 16 -9 14 -15 11 -15 -7z"/>
<path d="M3974 1685 c0 -132 2 -185 3 -117 2 68 2 176 0 240 -1 64 -3 9 -3
-123z"/>
<path d="M2252 1870 c0 -14 2 -19 5 -12 2 6 2 18 0 25 -3 6 -5 1 -5 -13z"/>
<path d="M6511 1874 c0 -11 3 -14 6 -6 3 7 2 16 -1 19 -3 4 -6 -2 -5 -13z"/>
<path d="M4221 1818 c1 -22 3 -26 6 -12 2 12 14 26 26 32 21 10 21 11 -5 11
-25 1 -28 -2 -27 -31z"/>
<path d="M4413 1843 c54 -2 139 -2 190 0 51 1 7 3 -98 3 -104 0 -146 -2 -92
-3z"/>
<path d="M5378 1843 c23 -2 59 -2 80 0 20 2 1 4 -43 4 -44 0 -61 -2 -37 -4z"/>
<path d="M6138 1843 c67 -2 177 -2 245 0 67 1 12 3 -123 3 -135 0 -190 -2
-122 -3z"/>
<path d="M1828 1833 c12 -2 30 -2 40 0 9 3 -1 5 -23 4 -22 0 -30 -2 -17 -4z"/>
<path d="M5092 1832 c-7 -5 16 -7 50 -4 85 5 96 10 23 11 -33 0 -66 -3 -73 -7z"/>
<path d="M1760 1820 c-18 -12 -2 -12 25 0 13 6 15 9 5 9 -8 0 -22 -4 -30 -9z"/>
<path d="M4818 1790 c-2 -22 0 -40 4 -40 5 0 8 18 8 40 0 22 -2 40 -4 40 -2 0
-6 -18 -8 -40z"/>
<path d="M1705 1788 c-26 -24 -52 -88 -34 -88 5 0 9 10 9 23 0 13 14 38 31 55
36 37 32 43 -6 10z"/>
<path d="M2747 1803 c-13 -13 -7 -21 13 -16 11 3 17 9 14 14 -6 11 -18 12 -27
2z"/>
<path d="M5074 1700 c0 -63 1 -89 3 -57 2 31 2 83 0 115 -2 31 -3 5 -3 -58z"/>
<path d="M5662 1765 c0 -16 2 -22 5 -12 2 9 2 23 0 30 -3 6 -5 -1 -5 -18z"/>
<path d="M2702 1740 c-13 -16 -19 -30 -14 -30 4 0 16 14 25 30 10 17 16 30 14
30 -2 0 -13 -13 -25 -30z"/>
<path d="M3372 1593 l2 -148 3 138 c3 115 6 137 19 137 8 0 12 5 9 10 -3 6
-13 10 -21 10 -12 0 -14 -25 -12 -147z"/>
<path d="M3745 1669 c-125 -81 -120 -77 -113 -84 2 -3 23 8 45 23 22 15 75 51
118 80 114 77 78 63 -50 -19z"/>
<path d="M4791 1711 c-6 -10 -30 -28 -54 -40 -40 -20 -60 -21 -280 -21 l-237
0 2 -97 2 -98 5 90 6 90 240 5 c156 3 249 9 265 17 35 17 55 35 63 56 9 23 0
22 -12 -2z"/>
<path d="M5662 1640 c0 -14 2 -19 5 -12 2 6 2 18 0 25 -3 6 -5 1 -5 -13z"/>
<path d="M6068 1643 c56 -2 148 -2 205 0 56 1 10 3 -103 3 -113 0 -159 -2
-102 -3z"/>
<path d="M2587 1582 c-10 -10 -17 -22 -17 -27 0 -5 6 0 14 11 13 17 31 20 158
25 l143 5 -141 2 c-125 2 -143 0 -157 -16z"/>
<path d="M5629 1513 c-13 -16 -12 -17 4 -4 9 7 17 15 17 17 0 8 -8 3 -21 -13z"/>
<path d="M6483 1515 c-5 -9 -23 -25 -39 -36 -16 -10 -23 -19 -17 -19 17 0 80
57 71 65 -3 4 -10 -1 -15 -10z"/>
<path d="M2513 1488 c-15 -20 -25 -38 -20 -38 3 0 12 11 21 25 17 26 16 35 -1
13z"/>
<path d="M2251 1474 c0 -11 3 -14 6 -6 3 7 2 16 -1 19 -3 4 -6 -2 -5 -13z"/>
<path d="M5518 1453 c7 -3 16 -2 19 1 4 3 -2 6 -13 5 -11 0 -14 -3 -6 -6z"/>
<path d="M1943 1443 c43 -2 110 -2 150 0 40 1 5 3 -78 3 -82 0 -115 -2 -72 -3z"/>
<path d="M2198 1443 c12 -2 30 -2 40 0 9 3 -1 5 -23 4 -22 0 -30 -2 -17 -4z"/>
<path d="M3328 1443 c6 -2 18 -2 25 0 6 3 1 5 -13 5 -14 0 -19 -2 -12 -5z"/>
<path d="M3913 1443 c9 -2 25 -2 35 0 9 3 1 5 -18 5 -19 0 -27 -2 -17 -5z"/>
<path d="M5222 1443 c37 -2 100 -2 140 0 40 1 10 3 -67 3 -77 0 -110 -1 -73
-3z"/>
<path d="M5848 1443 c6 -2 18 -2 25 0 6 3 1 5 -13 5 -14 0 -19 -2 -12 -5z"/>
<path d="M6068 1443 c12 -2 30 -2 40 0 9 3 -1 5 -23 4 -22 0 -30 -2 -17 -4z"/>
<path d="M6208 1443 c12 -2 30 -2 40 0 9 3 -1 5 -23 4 -22 0 -30 -2 -17 -4z"/>
<path d="M2240 1240 c0 -19 3 -21 12 -12 9 9 9 15 0 24 -9 9 -12 7 -12 -12z"/>
<path d="M4660 1219 c0 -47 5 -49 25 -9 19 37 19 37 -5 43 -17 4 -20 0 -20
-34z"/>
<path d="M4752 1227 c-12 -21 -18 -37 -14 -37 12 1 44 50 40 62 -2 6 -14 -5
-26 -25z"/>
<path d="M5391 1244 c0 -11 3 -14 6 -6 3 7 2 16 -1 19 -3 4 -6 -2 -5 -13z"/>
<path d="M3446 1215 c4 -8 8 -15 10 -15 2 0 4 7 4 15 0 8 -4 15 -10 15 -5 0
-7 -7 -4 -15z"/>
<path d="M4150 1215 c-10 -12 -10 -15 4 -15 9 0 16 7 16 15 0 8 -2 15 -4 15
-2 0 -9 -7 -16 -15z"/>
<path d="M2170 1210 c0 -12 8 -12 35 0 18 8 17 9 -7 9 -16 1 -28 -3 -28 -9z"/>
<path d="M2730 1210 c0 -5 7 -7 15 -4 8 4 15 8 15 10 0 2 -7 4 -15 4 -8 0 -15
-4 -15 -10z"/>
<path d="M4021 1196 c-17 -18 -21 -33 -18 -62 l4 -39 1 42 c2 32 8 46 28 62
15 12 22 21 17 21 -5 0 -20 -11 -32 -24z"/>
<path d="M5280 1204 c0 -14 3 -14 15 -4 8 7 15 14 15 16 0 2 -7 4 -15 4 -8 0
-15 -7 -15 -16z"/>
<path d="M5880 1209 c0 -5 5 -7 10 -4 6 3 10 8 10 11 0 2 -4 4 -10 4 -5 0 -10
-5 -10 -11z"/>
<path d="M2172 1088 c-1 -47 -6 -78 -13 -78 -5 0 -7 -5 -3 -11 15 -25 25 13
21 87 l-3 79 -2 -77z"/>
<path d="M4707 1145 c-4 -8 -2 -17 3 -20 6 -4 10 3 10 14 0 25 -6 27 -13 6z"/>
<path d="M6001 1148 c-1 -9 -11 -24 -22 -32 -16 -11 -19 -20 -14 -33 8 -17 8
-17 13 2 2 11 11 28 19 37 8 9 13 23 10 30 -4 9 -6 7 -6 -4z"/>
<path d="M5360 1135 c0 -8 5 -15 10 -15 6 0 10 7 10 15 0 8 -4 15 -10 15 -5 0
-10 -7 -10 -15z"/>
<path d="M3406 1124 c-10 -26 -7 -34 14 -34 11 0 20 4 20 9 0 17 -12 41 -20
41 -4 0 -11 -7 -14 -16z"/>
<path d="M2823 1113 c-15 -5 -17 -29 -4 -37 5 -3 11 5 13 19 3 14 5 25 4 24 0
0 -7 -3 -13 -6z"/>
<path d="M2730 1063 c0 -43 -3 -53 -17 -53 -9 0 -14 -3 -10 -6 11 -11 42 6 53
30 9 20 8 30 -7 53 l-19 28 0 -52z"/>
<path d="M5280 1094 c0 -14 3 -15 18 -3 9 7 19 15 21 16 2 2 -5 3 -17 3 -14 0
-22 -6 -22 -16z"/>
<path d="M5880 1063 c0 -43 -3 -53 -17 -53 -9 0 -14 -3 -10 -6 3 -3 14 -3 25
0 15 5 20 16 20 44 0 21 -3 44 -9 52 -6 10 -9 -2 -9 -37z"/>
<path d="M4660 1058 c0 -36 -4 -48 -17 -51 -16 -4 -16 -5 1 -6 21 -1 45 25 46
50 0 8 -7 24 -15 35 -13 18 -14 16 -15 -28z"/>
<path d="M3365 1031 c-3 -11 -14 -22 -23 -24 -16 -4 -16 -5 0 -6 9 0 23 6 32
14 8 8 25 19 38 24 21 9 21 10 -9 10 -23 1 -33 -4 -38 -18z"/>
<path d="M4146 1024 c-11 -8 -16 -14 -10 -14 13 0 39 18 34 24 -3 2 -14 -2
-24 -10z"/>
<path d="M5390 1022 c0 -8 -24 -13 -67 -14 l-68 -2 64 -3 c59 -4 94 7 78 24
-4 3 -7 1 -7 -5z"/>
<path d="M2823 1003 c9 -2 23 -2 30 0 6 3 -1 5 -18 5 -16 0 -22 -2 -12 -5z"/>
<path d="M3508 1003 c6 -2 18 -2 25 0 6 3 1 5 -13 5 -14 0 -19 -2 -12 -5z"/>
<path d="M4083 1003 c9 -2 23 -2 30 0 6 3 -1 5 -18 5 -16 0 -22 -2 -12 -5z"/>
<path d="M4763 1003 c9 -2 23 -2 30 0 6 3 -1 5 -18 5 -16 0 -22 -2 -12 -5z"/>
<path d="M5973 1003 c9 -2 23 -2 30 0 6 3 -1 5 -18 5 -16 0 -22 -2 -12 -5z"/>
</g>
</svg>
